<?xml version="1.0" standalone="no"?><!DOCTYPE svg PUBLIC "-//W3C//DTD SVG 1.1//EN" "http://www.w3.org/Graphics/SVG/1.1/DTD/svg11.dtd"><svg class="icon" width="200px" height="200.00px" viewBox="0 0 1024 1024" version="1.1" xmlns="http://www.w3.org/2000/svg"><path d="M533.333333 533.333333a32 32 0 0 1 0-64h193.493334a32 32 0 0 1 0 64H533.333333z" fill="#555555" /><path d="M170.666667 277.333333a42.666667 42.666667 0 0 0-42.666667 42.666667v426.666667a42.666667 42.666667 0 0 0 42.666667 42.666666h682.666666a42.666667 42.666667 0 0 0 42.666667-42.666666V320a42.666667 42.666667 0 0 0-42.666667-42.666667H170.666667z m0-64h682.666666a106.666667 106.666667 0 0 1 106.666667 106.666667v426.666667a106.666667 106.666667 0 0 1-106.666667 106.666666H170.666667a106.666667 106.666667 0 0 1-106.666667-106.666666V320a106.666667 106.666667 0 0 1 106.666667-106.666667z" fill="#555555" /><path d="M277.333333 256a32 32 0 0 1 64 0v133.397333a32 32 0 0 1-64 0V256zM277.333333 501.333333a32 32 0 0 1 64 0v64a32 32 0 0 1-64 0v-64zM277.333333 682.666667a32 32 0 0 1 64 0v133.397333a32 32 0 0 1-64 0V682.666667zM426.666667 703.850667a32 32 0 1 1 0-64h105.28c6.378667 0 10.282667-1.429333 12.544-3.498667 104.597333-105.237333 182.293333-182.741333 233.109333-232.533333a32 32 0 1 1 44.8 45.696c-50.56 49.578667-128.106667 126.912-233.408 232.832-15.402667 14.314667-34.986667 21.504-57.045333 21.504H426.666667z" fill="#555555" /></svg>