<?xml version="1.0" standalone="no"?><!DOCTYPE svg PUBLIC "-//W3C//DTD SVG 1.1//EN" "http://www.w3.org/Graphics/SVG/1.1/DTD/svg11.dtd"><svg class="icon" width="200px" height="195.61px" viewBox="0 0 1047 1024" version="1.1" xmlns="http://www.w3.org/2000/svg"><path d="M523.906977 1024C235.75814 1024 0 795.386047 0 512S235.75814 0 523.906977 0s523.906977 228.613953 523.906976 512S812.055814 1024 523.906977 1024z m0-952.55814C273.860465 71.44186 71.44186 269.097674 71.44186 512S273.860465 952.55814 523.906977 952.55814s452.465116-197.655814 452.465116-440.55814S773.953488 71.44186 523.906977 71.44186z" fill="#ed5e5e" /><path d="M352.446512 488.186047h366.734883c19.051163 0 35.72093 16.669767 35.720931 35.72093s-16.669767 35.72093-35.720931 35.72093H352.446512c-19.051163 0-35.72093-16.669767-35.720931-35.72093s16.669767-35.72093 35.720931-35.72093z" fill="#ed5e5e" /></svg>