<?xml version="1.0" standalone="no"?><!DOCTYPE svg PUBLIC "-//W3C//DTD SVG 1.1//EN" "http://www.w3.org/Graphics/SVG/1.1/DTD/svg11.dtd"><svg class="icon" width="200px" height="200.00px" viewBox="0 0 1024 1024" version="1.1" xmlns="http://www.w3.org/2000/svg"><path d="M0 0m512 0l0 0q512 0 512 512l0 0q0 512-512 512l0 0q-512 0-512-512l0 0q0-512 512-512Z" fill="#a0c3ff" /><path d="M512 652.8c-119.466667 0-358.4 60.16-358.4 179.2v45.226667a512 512 0 0 0 716.8 0V832c0-119.04-238.933333-179.2-358.4-179.2z" fill="#4374e0" /><path d="M512 384m-179.2 0a179.2 179.2 0 1 0 358.4 0 179.2 179.2 0 1 0-358.4 0Z" fill="#4374e0" /></svg>