<?xml version="1.0" standalone="no"?><!DOCTYPE svg PUBLIC "-//W3C//DTD SVG 1.1//EN" "http://www.w3.org/Graphics/SVG/1.1/DTD/svg11.dtd"><svg class="icon" width="200px" height="200.00px" viewBox="0 0 1024 1024" version="1.1" xmlns="http://www.w3.org/2000/svg"><path d="M4.063492 512c0 280.380952 227.555556 507.936508 507.936508 508.749206s507.936508-227.555556 508.749206-507.936508c0-280.380952-227.555556-507.936508-507.936508-508.749206C231.619048 3.250794 4.063492 230.806349 4.063492 512z" fill="#1faed4" /><path d="M826.514286 381.968254H202.361905v-64.203175c0-30.88254 23.568254-54.450794 54.450793-54.450793H772.063492c30.88254 0 54.450794 23.568254 54.450794 54.450793V381.968254z m-624.152381 78.019048v243.809523c0 30.88254 23.568254 54.450794 54.450793 54.450794H772.063492c30.88254 0 54.450794-23.568254 54.450794-54.450794v-243.809523H202.361905zM658.285714 677.790476h-47.136508v-47.136508H658.285714v47.136508z m56.888889 0h-47.136508v-47.136508H715.174603v47.136508z m59.326984 0h-47.136508v-47.136508h47.136508v47.136508z" fill="#ffffff" /></svg>