<?xml version="1.0" standalone="no"?><!DOCTYPE svg PUBLIC "-//W3C//DTD SVG 1.1//EN" "http://www.w3.org/Graphics/SVG/1.1/DTD/svg11.dtd"><svg class="icon" width="200px" height="200.00px" viewBox="0 0 1024 1024" version="1.1" xmlns="http://www.w3.org/2000/svg"><path d="M260.380444 554.951111C137.728 640.170667 56.888889 785.92 56.888889 951.409778 56.888889 1012.963556 124.017778 1024 512 1024c388.778667 0 455.111111-12.515556 455.111111-72.590222 0-165.546667-80.839111-311.239111-203.491555-396.515556-59.619556 76.117333-150.186667 124.643556-251.619556 124.643556s-192-48.526222-251.619556-124.586667zM512 543.630222c-143.644444 0-260.039111-121.685333-260.039111-271.815111S368.355556 0 512 0s260.039111 121.742222 260.039111 271.815111c0 150.129778-116.394667 271.815111-260.039111 271.815111z" fill="#c0ccda" /></svg>