<?xml version="1.0" standalone="no"?><!DOCTYPE svg PUBLIC "-//W3C//DTD SVG 1.1//EN" "http://www.w3.org/Graphics/SVG/1.1/DTD/svg11.dtd"><svg class="icon" width="200px" height="200.00px" viewBox="0 0 1024 1024" version="1.1" xmlns="http://www.w3.org/2000/svg"><path d="M870.4 0H153.6C69.12 0 0 69.12 0 153.6v716.8c0 84.48 69.12 153.6 153.6 153.6h716.8c84.48 0 153.6-69.12 153.6-153.6V153.6c0-84.48-69.12-153.6-153.6-153.6z m102.4 870.4c0 56.32-46.08 102.4-102.4 102.4H153.6c-56.32 0-102.4-46.08-102.4-102.4V153.6c0-56.32 46.08-102.4 102.4-102.4h716.8c56.32 0 102.4 46.08 102.4 102.4v716.8z" fill="#ff8400" /><path d="M448 261.12h225.28v427.52c2.56 43.52-17.92 61.44-61.44 58.88-20.48 0-48.64 0-81.92-2.56h-28.16c5.12 28.16 10.24 48.64 10.24 58.88 23.04 0 58.88 0 112.64-2.56 71.68 0 107.52-33.28 102.4-99.84V261.12h153.6v-51.2h-435.2v51.2zM363.52 322.56L409.6 281.6c-30.72-30.72-71.68-69.12-120.32-115.2L248.32 204.8c40.96 38.4 79.36 76.8 115.2 117.76z" fill="#ff8400" /><path d="M358.4 680.96V389.12H204.8v51.2h97.28v232.96c2.56 33.28-7.68 56.32-25.6 66.56l40.96 40.96c15.36-15.36 28.16-28.16 38.4-35.84 61.44-43.52 107.52-74.24 138.24-94.72-7.68-17.92-10.24-38.4-12.8-58.88-35.84 28.16-76.8 58.88-122.88 89.6z" fill="#ff8400" /></svg>